<mxfile host="65bd71144e">
    <diagram id="TSd_D6Wv-OoS0RUH5zUA" name="ページ1">
        <mxGraphModel dx="226" dy="449" grid="1" gridSize="10" guides="1" tooltips="1" connect="1" arrows="1" fold="1" page="1" pageScale="1" pageWidth="827" pageHeight="1169" math="0" shadow="0">
            <root>
                <mxCell id="0"/>
                <mxCell id="1" parent="0"/>
                <mxCell id="2" value="" style="rounded=0;whiteSpace=wrap;html=1;fontColor=default;" vertex="1" parent="1">
                    <mxGeometry x="80" y="40" width="540" height="340" as="geometry"/>
                </mxCell>
                <mxCell id="8" style="edgeStyle=none;html=1;exitX=0;exitY=0.5;exitDx=0;exitDy=0;entryX=1;entryY=0.5;entryDx=0;entryDy=0;" edge="1" parent="1" source="7" target="4">
                    <mxGeometry relative="1" as="geometry"/>
                </mxCell>
                <mxCell id="4" value="&lt;span style=&quot;&quot;&gt;VSCode.Memo.Classlib&lt;/span&gt;" style="rounded=0;whiteSpace=wrap;html=1;fillColor=none;fontColor=default;" vertex="1" parent="1">
                    <mxGeometry x="120" y="80" width="190" height="60" as="geometry"/>
                </mxCell>
                <mxCell id="7" value="&lt;span style=&quot;&quot;&gt;VSCode.Memo.Console&lt;/span&gt;" style="rounded=0;whiteSpace=wrap;html=1;fillColor=none;fontColor=light-dark(#000000,#FFFFFF);" vertex="1" parent="1">
                    <mxGeometry x="360" y="80" width="190" height="60" as="geometry"/>
                </mxCell>
                <mxCell id="9" value="&lt;span style=&quot;&quot;&gt;VSCode.Memo.Classlib.Test&lt;/span&gt;" style="rounded=0;whiteSpace=wrap;html=1;fillColor=none;fontColor=default;" vertex="1" parent="1">
                    <mxGeometry x="120" y="200" width="190" height="60" as="geometry"/>
                </mxCell>
                <mxCell id="10" style="edgeStyle=none;html=1;exitX=0.5;exitY=0;exitDx=0;exitDy=0;entryX=0.5;entryY=1;entryDx=0;entryDy=0;" edge="1" parent="1" source="9" target="4">
                    <mxGeometry relative="1" as="geometry">
                        <mxPoint x="400" y="110" as="sourcePoint"/>
                        <mxPoint x="350" y="110" as="targetPoint"/>
                    </mxGeometry>
                </mxCell>
                <mxCell id="11" value="&lt;span style=&quot;&quot;&gt;VSCode.Memo.Console.Test&lt;/span&gt;" style="rounded=0;whiteSpace=wrap;html=1;fillColor=none;fontColor=light-dark(#000000,#FFFFFF);" vertex="1" parent="1">
                    <mxGeometry x="360" y="200" width="190" height="60" as="geometry"/>
                </mxCell>
                <mxCell id="12" style="edgeStyle=none;html=1;entryX=0.5;entryY=1;entryDx=0;entryDy=0;" edge="1" parent="1" source="11" target="7">
                    <mxGeometry relative="1" as="geometry">
                        <mxPoint x="225" y="210" as="sourcePoint"/>
                        <mxPoint x="225" y="150" as="targetPoint"/>
                    </mxGeometry>
                </mxCell>
            </root>
        </mxGraphModel>
    </diagram>
</mxfile>